<?xml version="1.0" encoding="UTF-8" standalone="no"?><svg xmlns="http://www.w3.org/2000/svg" xmlns:xlink="http://www.w3.org/1999/xlink" contentScriptType="application/ecmascript" contentStyleType="text/css" height="850px" preserveAspectRatio="none" style="width:1773px;height:850px;" version="1.1" viewBox="0 0 1773 850" width="1773px" zoomAndPan="magnify"><defs><filter height="300%" id="fh0oli8vcifua" width="300%" x="-1" y="-1"><feGaussianBlur result="blurOut" stdDeviation="2.0"/><feColorMatrix in="blurOut" result="blurOut2" type="matrix" values="0 0 0 0 0 0 0 0 0 0 0 0 0 0 0 0 0 0 .4 0"/><feOffset dx="4.0" dy="4.0" in="blurOut2" result="blurOut3"/><feBlend in="SourceGraphic" in2="blurOut3" mode="normal"/></filter></defs><g><!--MD5=[b51d501ac685375ecef92c2f1e105bf0]
cluster gosnake--><polygon fill="#FFFFFF" filter="url(#fh0oli8vcifua)" points="16,216,89,216,96,238.2969,1247,238.2969,1247,838,16,838,16,216" style="stroke: #000000; stroke-width: 1.5;"/><line style="stroke: #000000; stroke-width: 1.5;" x1="16" x2="96" y1="238.2969" y2="238.2969"/><text fill="#000000" font-family="sans-serif" font-size="14" font-weight="bold" lengthAdjust="spacingAndGlyphs" textLength="67" x="20" y="230.9951">gosnake</text><!--MD5=[a70b0d373322012744ecc119c63f921b]
cluster main--><polygon fill="#FFFFFF" filter="url(#fh0oli8vcifua)" points="1271,6,1317,6,1324,28.2969,1751,28.2969,1751,353,1271,353,1271,6" style="stroke: #000000; stroke-width: 1.5;"/><line style="stroke: #000000; stroke-width: 1.5;" x1="1271" x2="1324" y1="28.2969" y2="28.2969"/><text fill="#000000" font-family="sans-serif" font-size="14" font-weight="bold" lengthAdjust="spacingAndGlyphs" textLength="40" x="1275" y="20.9951">main</text><!--MD5=[857233cdc7018b1e8695fe78ce49561f]
cluster __builtin__--><polygon fill="#FFFFFF" filter="url(#fh0oli8vcifua)" points="518,57,577,57,584,79.2969,596,79.2969,596,156,518,156,518,57" style="stroke: #000000; stroke-width: 1.5;"/><line style="stroke: #000000; stroke-width: 1.5;" x1="518" x2="584" y1="79.2969" y2="79.2969"/><text fill="#000000" font-family="sans-serif" font-size="14" font-weight="bold" lengthAdjust="spacingAndGlyphs" text-decoration="underline" textLength="53" x="522" y="71.9951">builtin</text><!--MD5=[9ce5c6beab050843c15a4e92021f7c4d]
class gosnake.Bodies--><rect fill="#FEFECE" filter="url(#fh0oli8vcifua)" height="112.0234" id="gosnake.Bodies" style="stroke: #A80036; stroke-width: 1.5;" width="184" x="32" y="442"/><ellipse cx="98.75" cy="458" fill="#FF7700" rx="11" ry="11" style="stroke: #A80036; stroke-width: 1.0;"/><path d="M99.1875,455.5313 L101.0313,455.5313 L101.0313,457.125 C101.0313,457.5156 101.0625,457.6875 101.1563,457.8281 C101.3125,458.0781 101.5938,458.2344 101.8906,458.2344 C102.1563,458.2344 102.4063,458.1094 102.5781,457.8906 C102.7188,457.7188 102.7344,457.5938 102.7344,457.125 L102.7344,453.8438 L93.9688,453.8438 L93.9688,457.125 C93.9688,457.5156 94,457.6875 94.0781,457.8281 C94.2344,458.0938 94.5313,458.2344 94.8125,458.2344 C95.0938,458.2344 95.3438,458.1094 95.5156,457.8906 C95.625,457.7188 95.6563,457.5781 95.6563,457.125 L95.6563,455.5313 L97.4844,455.5313 L97.4844,462.0469 L96.375,462.0469 C95.9375,462.0469 95.8125,462.0625 95.6563,462.1719 C95.4063,462.3281 95.25,462.6094 95.25,462.9063 C95.25,463.1563 95.3906,463.4219 95.6094,463.5781 C95.7656,463.7031 95.9844,463.75 96.375,463.75 L100.3125,463.75 C100.6406,463.75 100.9063,463.7031 101.0156,463.625 C101.2813,463.4844 101.4219,463.1875 101.4219,462.9063 C101.4219,462.625 101.2969,462.375 101.0625,462.2031 C100.9063,462.0781 100.7656,462.0469 100.3125,462.0469 L99.1875,462.0469 L99.1875,455.5313 Z "/><text fill="#000000" font-family="sans-serif" font-size="12" lengthAdjust="spacingAndGlyphs" textLength="42" x="119.25" y="462.1543">Bodies</text><line style="stroke: #A80036; stroke-width: 1.5;" x1="33" x2="215" y1="474" y2="474"/><line style="stroke: #A80036; stroke-width: 1.5;" x1="33" x2="215" y1="482" y2="482"/><rect fill="#F24D5C" height="6" style="stroke: #C82930; stroke-width: 1.0;" width="6" x="40" y="490"/><text fill="#000000" font-family="sans-serif" font-size="11" lengthAdjust="spacingAndGlyphs" textLength="70" x="52" y="496.2104">head() Body</text><rect fill="#F24D5C" height="6" style="stroke: #C82930; stroke-width: 1.0;" width="6" x="40" y="502.8047"/><text fill="#000000" font-family="sans-serif" font-size="11" lengthAdjust="spacingAndGlyphs" textLength="29" x="52" y="509.0151">any(f</text><text fill="#0000FF" font-family="sans-serif" font-size="11" lengthAdjust="spacingAndGlyphs" textLength="24" x="85" y="509.0151">func</text><text fill="#000000" font-family="sans-serif" font-size="11" lengthAdjust="spacingAndGlyphs" textLength="97" x="109" y="509.0151">(Body) bool) bool</text><rect fill="#F24D5C" height="6" style="stroke: #C82930; stroke-width: 1.0;" width="6" x="40" y="515.6094"/><text fill="#000000" font-family="sans-serif" font-size="11" lengthAdjust="spacingAndGlyphs" textLength="43" x="52" y="521.8198">match(f</text><text fill="#0000FF" font-family="sans-serif" font-size="11" lengthAdjust="spacingAndGlyphs" textLength="24" x="99" y="521.8198">func</text><text fill="#000000" font-family="sans-serif" font-size="11" lengthAdjust="spacingAndGlyphs" textLength="87" x="123" y="521.8198">(Body) bool) int</text><rect fill="#F24D5C" height="6" style="stroke: #C82930; stroke-width: 1.0;" width="6" x="40" y="528.4141"/><text fill="#000000" font-family="sans-serif" font-size="11" lengthAdjust="spacingAndGlyphs" textLength="121" x="52" y="534.6245">appendHead(b Body)</text><rect fill="#F24D5C" height="6" style="stroke: #C82930; stroke-width: 1.0;" width="6" x="40" y="541.2188"/><text fill="#000000" font-family="sans-serif" font-size="11" lengthAdjust="spacingAndGlyphs" textLength="52" x="52" y="547.4292">shiftTail()</text><!--MD5=[79f025ca5dc256e1ff6746ff9ec8311c]
class gosnake.Body--><rect fill="#FEFECE" filter="url(#fh0oli8vcifua)" height="73.6094" id="gosnake.Body" style="stroke: #A80036; stroke-width: 1.5;" width="174" x="635" y="257"/><ellipse cx="702.25" cy="273" fill="#7FFFD4" rx="11" ry="11" style="stroke: #A80036; stroke-width: 1.0;"/><path d="M706.0313,268.9688 C706.0313,268.5313 706.0156,268.3906 705.9219,268.2344 C705.7813,268 705.5,267.8438 705.2031,267.8438 C704.8594,267.8438 704.7188,267.9844 704.5469,268.4063 C703.9531,268.0313 703.2031,267.8438 702.3281,267.8438 C700.2188,267.8438 698.6406,269.1406 698.6406,270.8594 C698.6406,271.8281 699.1719,272.7344 700.0313,273.2188 C700.5781,273.5313 701.125,273.7031 702.2344,273.8906 C703.3906,274.0938 703.6563,274.1563 704.0156,274.3438 C704.3906,274.5469 704.625,274.8906 704.625,275.25 C704.625,275.9844 703.6406,276.5313 702.3906,276.5313 C701.2656,276.5313 700.1875,276.0469 700.0156,275.4375 C699.8906,274.9688 699.8906,274.9688 699.7656,274.8594 C699.6094,274.7031 699.3906,274.6094 699.1563,274.6094 C698.875,274.6094 698.625,274.7344 698.4531,274.9531 C698.3438,275.125 698.2969,275.3125 698.2969,275.7344 L698.2969,276.8594 C698.2969,277.625 698.5781,277.9844 699.1719,277.9844 C699.4375,277.9844 699.5625,277.9219 699.8438,277.5781 C700.6875,278.0156 701.5781,278.2344 702.5,278.2344 C704.8281,278.2344 706.3906,277.0469 706.3906,275.2813 C706.3906,274.3906 706.0781,273.7031 705.3906,273.1563 C704.8594,272.7344 704.2188,272.4844 702.7344,272.2188 C701.4688,271.9844 701.375,271.9531 701.0469,271.7813 C700.6719,271.5938 700.4063,271.2031 700.4063,270.8438 C700.4063,270.1094 701.2656,269.5469 702.3281,269.5469 C703.3906,269.5469 704.2031,270.0156 704.3594,270.6875 C704.4688,271.2344 704.4688,271.2344 704.5938,271.375 C704.7344,271.5 704.9688,271.6094 705.2031,271.6094 C705.4688,271.6094 705.7188,271.4688 705.8906,271.25 C706,271.0781 706.0313,270.9375 706.0313,270.4688 L706.0313,268.9688 Z "/><text fill="#000000" font-family="sans-serif" font-size="12" lengthAdjust="spacingAndGlyphs" textLength="31" x="722.75" y="277.1543">Body</text><line style="stroke: #A80036; stroke-width: 1.5;" x1="636" x2="808" y1="289" y2="289"/><ellipse cx="646" cy="300" fill="none" rx="3" ry="3" style="stroke: #038048; stroke-width: 1.0;"/><text fill="#000000" font-family="sans-serif" font-size="11" lengthAdjust="spacingAndGlyphs" textLength="26" x="655" y="303.2104">X int</text><line style="stroke: #A80036; stroke-width: 1.5;" x1="636" x2="808" y1="309.8047" y2="309.8047"/><ellipse cx="646" cy="320.8047" fill="#84BE84" rx="3" ry="3" style="stroke: #038048; stroke-width: 1.0;"/><text fill="#000000" font-family="sans-serif" font-size="11" lengthAdjust="spacingAndGlyphs" textLength="148" x="655" y="324.0151">Coordinates() Coordinates</text><!--MD5=[2afeecf9163276c6644855eb9fc1e43b]
class gosnake.Coordinates--><rect fill="#FEFECE" filter="url(#fh0oli8vcifua)" height="86.4141" id="gosnake.Coordinates" style="stroke: #A80036; stroke-width: 1.5;" width="178" x="844" y="251"/><ellipse cx="892.25" cy="267" fill="#7FFFD4" rx="11" ry="11" style="stroke: #A80036; stroke-width: 1.0;"/><path d="M896.0313,262.9688 C896.0313,262.5313 896.0156,262.3906 895.9219,262.2344 C895.7813,262 895.5,261.8438 895.2031,261.8438 C894.8594,261.8438 894.7188,261.9844 894.5469,262.4063 C893.9531,262.0313 893.2031,261.8438 892.3281,261.8438 C890.2188,261.8438 888.6406,263.1406 888.6406,264.8594 C888.6406,265.8281 889.1719,266.7344 890.0313,267.2188 C890.5781,267.5313 891.125,267.7031 892.2344,267.8906 C893.3906,268.0938 893.6563,268.1563 894.0156,268.3438 C894.3906,268.5469 894.625,268.8906 894.625,269.25 C894.625,269.9844 893.6406,270.5313 892.3906,270.5313 C891.2656,270.5313 890.1875,270.0469 890.0156,269.4375 C889.8906,268.9688 889.8906,268.9688 889.7656,268.8594 C889.6094,268.7031 889.3906,268.6094 889.1563,268.6094 C888.875,268.6094 888.625,268.7344 888.4531,268.9531 C888.3438,269.125 888.2969,269.3125 888.2969,269.7344 L888.2969,270.8594 C888.2969,271.625 888.5781,271.9844 889.1719,271.9844 C889.4375,271.9844 889.5625,271.9219 889.8438,271.5781 C890.6875,272.0156 891.5781,272.2344 892.5,272.2344 C894.8281,272.2344 896.3906,271.0469 896.3906,269.2813 C896.3906,268.3906 896.0781,267.7031 895.3906,267.1563 C894.8594,266.7344 894.2188,266.4844 892.7344,266.2188 C891.4688,265.9844 891.375,265.9531 891.0469,265.7813 C890.6719,265.5938 890.4063,265.2031 890.4063,264.8438 C890.4063,264.1094 891.2656,263.5469 892.3281,263.5469 C893.3906,263.5469 894.2031,264.0156 894.3594,264.6875 C894.4688,265.2344 894.4688,265.2344 894.5938,265.375 C894.7344,265.5 894.9688,265.6094 895.2031,265.6094 C895.4688,265.6094 895.7188,265.4688 895.8906,265.25 C896,265.0781 896.0313,264.9375 896.0313,264.4688 L896.0313,262.9688 Z "/><text fill="#000000" font-family="sans-serif" font-size="12" lengthAdjust="spacingAndGlyphs" textLength="73" x="912.75" y="271.1543">Coordinates</text><line style="stroke: #A80036; stroke-width: 1.5;" x1="845" x2="1021" y1="283" y2="283"/><rect fill="none" height="6" style="stroke: #C82930; stroke-width: 1.0;" width="6" x="852" y="291"/><text fill="#000000" font-family="sans-serif" font-size="11" lengthAdjust="spacingAndGlyphs" textLength="25" x="864" y="297.2104">x int</text><line style="stroke: #A80036; stroke-width: 1.5;" x1="845" x2="1021" y1="303.8047" y2="303.8047"/><ellipse cx="855" cy="314.8047" fill="#84BE84" rx="3" ry="3" style="stroke: #038048; stroke-width: 1.0;"/><text fill="#000000" font-family="sans-serif" font-size="11" lengthAdjust="spacingAndGlyphs" textLength="76" x="864" y="318.0151">String() string</text><ellipse cx="855" cy="327.6094" fill="#84BE84" rx="3" ry="3" style="stroke: #038048; stroke-width: 1.0;"/><text fill="#000000" font-family="sans-serif" font-size="11" lengthAdjust="spacingAndGlyphs" textLength="152" x="864" y="330.8198">Equal(co Coordinates) bool</text><!--MD5=[345f14e6fbe8a579b7c9c67c0810630a]
class gosnake.Food--><rect fill="#FEFECE" filter="url(#fh0oli8vcifua)" height="73.6094" id="gosnake.Food" style="stroke: #A80036; stroke-width: 1.5;" width="174" x="1057" y="257"/><ellipse cx="1124.25" cy="273" fill="#7FFFD4" rx="11" ry="11" style="stroke: #A80036; stroke-width: 1.0;"/><path d="M1128.0313,268.9688 C1128.0313,268.5313 1128.0156,268.3906 1127.9219,268.2344 C1127.7813,268 1127.5,267.8438 1127.2031,267.8438 C1126.8594,267.8438 1126.7188,267.9844 1126.5469,268.4063 C1125.9531,268.0313 1125.2031,267.8438 1124.3281,267.8438 C1122.2188,267.8438 1120.6406,269.1406 1120.6406,270.8594 C1120.6406,271.8281 1121.1719,272.7344 1122.0313,273.2188 C1122.5781,273.5313 1123.125,273.7031 1124.2344,273.8906 C1125.3906,274.0938 1125.6563,274.1563 1126.0156,274.3438 C1126.3906,274.5469 1126.625,274.8906 1126.625,275.25 C1126.625,275.9844 1125.6406,276.5313 1124.3906,276.5313 C1123.2656,276.5313 1122.1875,276.0469 1122.0156,275.4375 C1121.8906,274.9688 1121.8906,274.9688 1121.7656,274.8594 C1121.6094,274.7031 1121.3906,274.6094 1121.1563,274.6094 C1120.875,274.6094 1120.625,274.7344 1120.4531,274.9531 C1120.3438,275.125 1120.2969,275.3125 1120.2969,275.7344 L1120.2969,276.8594 C1120.2969,277.625 1120.5781,277.9844 1121.1719,277.9844 C1121.4375,277.9844 1121.5625,277.9219 1121.8438,277.5781 C1122.6875,278.0156 1123.5781,278.2344 1124.5,278.2344 C1126.8281,278.2344 1128.3906,277.0469 1128.3906,275.2813 C1128.3906,274.3906 1128.0781,273.7031 1127.3906,273.1563 C1126.8594,272.7344 1126.2188,272.4844 1124.7344,272.2188 C1123.4688,271.9844 1123.375,271.9531 1123.0469,271.7813 C1122.6719,271.5938 1122.4063,271.2031 1122.4063,270.8438 C1122.4063,270.1094 1123.2656,269.5469 1124.3281,269.5469 C1125.3906,269.5469 1126.2031,270.0156 1126.3594,270.6875 C1126.4688,271.2344 1126.4688,271.2344 1126.5938,271.375 C1126.7344,271.5 1126.9688,271.6094 1127.2031,271.6094 C1127.4688,271.6094 1127.7188,271.4688 1127.8906,271.25 C1128,271.0781 1128.0313,270.9375 1128.0313,270.4688 L1128.0313,268.9688 Z "/><text fill="#000000" font-family="sans-serif" font-size="12" lengthAdjust="spacingAndGlyphs" textLength="31" x="1144.75" y="277.1543">Food</text><line style="stroke: #A80036; stroke-width: 1.5;" x1="1058" x2="1230" y1="289" y2="289"/><ellipse cx="1068" cy="300" fill="none" rx="3" ry="3" style="stroke: #038048; stroke-width: 1.0;"/><text fill="#000000" font-family="sans-serif" font-size="11" lengthAdjust="spacingAndGlyphs" textLength="26" x="1077" y="303.2104">X int</text><line style="stroke: #A80036; stroke-width: 1.5;" x1="1058" x2="1230" y1="309.8047" y2="309.8047"/><ellipse cx="1068" cy="320.8047" fill="#84BE84" rx="3" ry="3" style="stroke: #038048; stroke-width: 1.0;"/><text fill="#000000" font-family="sans-serif" font-size="11" lengthAdjust="spacingAndGlyphs" textLength="148" x="1077" y="324.0151">Coordinates() Coordinates</text><!--MD5=[d48a07b8955dc7d8666b22c687f3f0ec]
class gosnake.Game--><rect fill="#FEFECE" filter="url(#fh0oli8vcifua)" height="163.2422" id="gosnake.Game" style="stroke: #A80036; stroke-width: 1.5;" width="99" x="647.5" y="416.5"/><ellipse cx="676.9" cy="432.5" fill="#7FFFD4" rx="11" ry="11" style="stroke: #A80036; stroke-width: 1.0;"/><path d="M680.6813,428.4688 C680.6813,428.0313 680.6656,427.8906 680.5719,427.7344 C680.4313,427.5 680.15,427.3438 679.8531,427.3438 C679.5094,427.3438 679.3688,427.4844 679.1969,427.9063 C678.6031,427.5313 677.8531,427.3438 676.9781,427.3438 C674.8688,427.3438 673.2906,428.6406 673.2906,430.3594 C673.2906,431.3281 673.8219,432.2344 674.6813,432.7188 C675.2281,433.0313 675.775,433.2031 676.8844,433.3906 C678.0406,433.5938 678.3063,433.6563 678.6656,433.8438 C679.0406,434.0469 679.275,434.3906 679.275,434.75 C679.275,435.4844 678.2906,436.0313 677.0406,436.0313 C675.9156,436.0313 674.8375,435.5469 674.6656,434.9375 C674.5406,434.4688 674.5406,434.4688 674.4156,434.3594 C674.2594,434.2031 674.0406,434.1094 673.8063,434.1094 C673.525,434.1094 673.275,434.2344 673.1031,434.4531 C672.9938,434.625 672.9469,434.8125 672.9469,435.2344 L672.9469,436.3594 C672.9469,437.125 673.2281,437.4844 673.8219,437.4844 C674.0875,437.4844 674.2125,437.4219 674.4938,437.0781 C675.3375,437.5156 676.2281,437.7344 677.15,437.7344 C679.4781,437.7344 681.0406,436.5469 681.0406,434.7813 C681.0406,433.8906 680.7281,433.2031 680.0406,432.6563 C679.5094,432.2344 678.8688,431.9844 677.3844,431.7188 C676.1188,431.4844 676.025,431.4531 675.6969,431.2813 C675.3219,431.0938 675.0563,430.7031 675.0563,430.3438 C675.0563,429.6094 675.9156,429.0469 676.9781,429.0469 C678.0406,429.0469 678.8531,429.5156 679.0094,430.1875 C679.1188,430.7344 679.1188,430.7344 679.2438,430.875 C679.3844,431 679.6188,431.1094 679.8531,431.1094 C680.1188,431.1094 680.3688,430.9688 680.5406,430.75 C680.65,430.5781 680.6813,430.4375 680.6813,429.9688 L680.6813,428.4688 Z "/><text fill="#000000" font-family="sans-serif" font-size="12" lengthAdjust="spacingAndGlyphs" textLength="35" x="694.1" y="436.6543">Game</text><line style="stroke: #A80036; stroke-width: 1.5;" x1="648.5" x2="745.5" y1="448.5" y2="448.5"/><rect fill="none" height="6" style="stroke: #C82930; stroke-width: 1.0;" width="6" x="655.5" y="456.5"/><text fill="#000000" font-family="sans-serif" font-size="11" lengthAdjust="spacingAndGlyphs" textLength="65" x="667.5" y="462.7104">isOver bool</text><text fill="#000000" font-family="sans-serif" font-size="11" lengthAdjust="spacingAndGlyphs" textLength="0" x="671.5" y="475.5151"/><ellipse cx="658.5" cy="485.1094" fill="none" rx="3" ry="3" style="stroke: #038048; stroke-width: 1.0;"/><text fill="#000000" font-family="sans-serif" font-size="11" lengthAdjust="spacingAndGlyphs" textLength="68" x="667.5" y="488.3198">World World</text><line style="stroke: #A80036; stroke-width: 1.5;" x1="648.5" x2="745.5" y1="494.9141" y2="494.9141"/><ellipse cx="658.5" cy="505.9141" fill="#84BE84" rx="3" ry="3" style="stroke: #038048; stroke-width: 1.0;"/><text fill="#000000" font-family="sans-serif" font-size="11" lengthAdjust="spacingAndGlyphs" textLength="59" x="667.5" y="509.1245">Score() int</text><ellipse cx="658.5" cy="518.7188" fill="#84BE84" rx="3" ry="3" style="stroke: #038048; stroke-width: 1.0;"/><text fill="#000000" font-family="sans-serif" font-size="11" lengthAdjust="spacingAndGlyphs" textLength="73" x="667.5" y="521.9292">IsOver() bool</text><ellipse cx="658.5" cy="531.5234" fill="#84BE84" rx="3" ry="3" style="stroke: #038048; stroke-width: 1.0;"/><text fill="#000000" font-family="sans-serif" font-size="11" lengthAdjust="spacingAndGlyphs" textLength="50" x="667.5" y="534.7339">WalkUp()</text><ellipse cx="658.5" cy="544.3281" fill="#84BE84" rx="3" ry="3" style="stroke: #038048; stroke-width: 1.0;"/><text fill="#000000" font-family="sans-serif" font-size="11" lengthAdjust="spacingAndGlyphs" textLength="67" x="667.5" y="547.5386">WalkDown()</text><ellipse cx="658.5" cy="557.1328" fill="#84BE84" rx="3" ry="3" style="stroke: #038048; stroke-width: 1.0;"/><text fill="#000000" font-family="sans-serif" font-size="11" lengthAdjust="spacingAndGlyphs" textLength="57" x="667.5" y="560.3433">WalkLeft()</text><ellipse cx="658.5" cy="569.9375" fill="#84BE84" rx="3" ry="3" style="stroke: #038048; stroke-width: 1.0;"/><text fill="#000000" font-family="sans-serif" font-size="11" lengthAdjust="spacingAndGlyphs" textLength="63" x="667.5" y="573.1479">WalkRight()</text><!--MD5=[45249e28d697a0106b32ec183fab9ef0]
class gosnake.GameConfig--><rect fill="#FEFECE" filter="url(#fh0oli8vcifua)" height="99.2188" id="gosnake.GameConfig" style="stroke: #A80036; stroke-width: 1.5;" width="194" x="782" y="448.5"/><ellipse cx="838.25" cy="464.5" fill="#7FFFD4" rx="11" ry="11" style="stroke: #A80036; stroke-width: 1.0;"/><path d="M842.0313,460.4688 C842.0313,460.0313 842.0156,459.8906 841.9219,459.7344 C841.7813,459.5 841.5,459.3438 841.2031,459.3438 C840.8594,459.3438 840.7188,459.4844 840.5469,459.9063 C839.9531,459.5313 839.2031,459.3438 838.3281,459.3438 C836.2188,459.3438 834.6406,460.6406 834.6406,462.3594 C834.6406,463.3281 835.1719,464.2344 836.0313,464.7188 C836.5781,465.0313 837.125,465.2031 838.2344,465.3906 C839.3906,465.5938 839.6563,465.6563 840.0156,465.8438 C840.3906,466.0469 840.625,466.3906 840.625,466.75 C840.625,467.4844 839.6406,468.0313 838.3906,468.0313 C837.2656,468.0313 836.1875,467.5469 836.0156,466.9375 C835.8906,466.4688 835.8906,466.4688 835.7656,466.3594 C835.6094,466.2031 835.3906,466.1094 835.1563,466.1094 C834.875,466.1094 834.625,466.2344 834.4531,466.4531 C834.3438,466.625 834.2969,466.8125 834.2969,467.2344 L834.2969,468.3594 C834.2969,469.125 834.5781,469.4844 835.1719,469.4844 C835.4375,469.4844 835.5625,469.4219 835.8438,469.0781 C836.6875,469.5156 837.5781,469.7344 838.5,469.7344 C840.8281,469.7344 842.3906,468.5469 842.3906,466.7813 C842.3906,465.8906 842.0781,465.2031 841.3906,464.6563 C840.8594,464.2344 840.2188,463.9844 838.7344,463.7188 C837.4688,463.4844 837.375,463.4531 837.0469,463.2813 C836.6719,463.0938 836.4063,462.7031 836.4063,462.3438 C836.4063,461.6094 837.2656,461.0469 838.3281,461.0469 C839.3906,461.0469 840.2031,461.5156 840.3594,462.1875 C840.4688,462.7344 840.4688,462.7344 840.5938,462.875 C840.7344,463 840.9688,463.1094 841.2031,463.1094 C841.4688,463.1094 841.7188,462.9688 841.8906,462.75 C842,462.5781 842.0313,462.4375 842.0313,461.9688 L842.0313,460.4688 Z "/><text fill="#000000" font-family="sans-serif" font-size="12" lengthAdjust="spacingAndGlyphs" textLength="73" x="858.75" y="468.6543">GameConfig</text><line style="stroke: #A80036; stroke-width: 1.5;" x1="783" x2="975" y1="480.5" y2="480.5"/><ellipse cx="793" cy="491.5" fill="none" rx="3" ry="3" style="stroke: #038048; stroke-width: 1.0;"/><text fill="#000000" font-family="sans-serif" font-size="11" lengthAdjust="spacingAndGlyphs" textLength="47" x="802" y="494.7104">XLen int</text><ellipse cx="793" cy="504.3047" fill="none" rx="3" ry="3" style="stroke: #038048; stroke-width: 1.0;"/><text fill="#000000" font-family="sans-serif" font-size="11" lengthAdjust="spacingAndGlyphs" textLength="105" x="802" y="507.5151">BabySnake Snake</text><ellipse cx="793" cy="517.1094" fill="none" rx="3" ry="3" style="stroke: #038048; stroke-width: 1.0;"/><text fill="#000000" font-family="sans-serif" font-size="11" lengthAdjust="spacingAndGlyphs" textLength="75" x="802" y="520.3198">InitFood Food</text><ellipse cx="793" cy="529.9141" fill="none" rx="3" ry="3" style="stroke: #038048; stroke-width: 1.0;"/><text fill="#000000" font-family="sans-serif" font-size="11" lengthAdjust="spacingAndGlyphs" textLength="168" x="802" y="533.1245">WallGenerator WallGenerator</text><line style="stroke: #A80036; stroke-width: 1.5;" x1="783" x2="975" y1="539.7188" y2="539.7188"/><!--MD5=[ce77753c664fd2c2e132955371a5553c]
class gosnake.Snake--><rect fill="#FEFECE" filter="url(#fh0oli8vcifua)" height="201.6563" id="gosnake.Snake" style="stroke: #A80036; stroke-width: 1.5;" width="219" x="1011.5" y="397"/><ellipse cx="1098.25" cy="413" fill="#7FFFD4" rx="11" ry="11" style="stroke: #A80036; stroke-width: 1.0;"/><path d="M1102.0313,408.9688 C1102.0313,408.5313 1102.0156,408.3906 1101.9219,408.2344 C1101.7813,408 1101.5,407.8438 1101.2031,407.8438 C1100.8594,407.8438 1100.7188,407.9844 1100.5469,408.4063 C1099.9531,408.0313 1099.2031,407.8438 1098.3281,407.8438 C1096.2188,407.8438 1094.6406,409.1406 1094.6406,410.8594 C1094.6406,411.8281 1095.1719,412.7344 1096.0313,413.2188 C1096.5781,413.5313 1097.125,413.7031 1098.2344,413.8906 C1099.3906,414.0938 1099.6563,414.1563 1100.0156,414.3438 C1100.3906,414.5469 1100.625,414.8906 1100.625,415.25 C1100.625,415.9844 1099.6406,416.5313 1098.3906,416.5313 C1097.2656,416.5313 1096.1875,416.0469 1096.0156,415.4375 C1095.8906,414.9688 1095.8906,414.9688 1095.7656,414.8594 C1095.6094,414.7031 1095.3906,414.6094 1095.1563,414.6094 C1094.875,414.6094 1094.625,414.7344 1094.4531,414.9531 C1094.3438,415.125 1094.2969,415.3125 1094.2969,415.7344 L1094.2969,416.8594 C1094.2969,417.625 1094.5781,417.9844 1095.1719,417.9844 C1095.4375,417.9844 1095.5625,417.9219 1095.8438,417.5781 C1096.6875,418.0156 1097.5781,418.2344 1098.5,418.2344 C1100.8281,418.2344 1102.3906,417.0469 1102.3906,415.2813 C1102.3906,414.3906 1102.0781,413.7031 1101.3906,413.1563 C1100.8594,412.7344 1100.2188,412.4844 1098.7344,412.2188 C1097.4688,411.9844 1097.375,411.9531 1097.0469,411.7813 C1096.6719,411.5938 1096.4063,411.2031 1096.4063,410.8438 C1096.4063,410.1094 1097.2656,409.5469 1098.3281,409.5469 C1099.3906,409.5469 1100.2031,410.0156 1100.3594,410.6875 C1100.4688,411.2344 1100.4688,411.2344 1100.5938,411.375 C1100.7344,411.5 1100.9688,411.6094 1101.2031,411.6094 C1101.4688,411.6094 1101.7188,411.4688 1101.8906,411.25 C1102,411.0781 1102.0313,410.9375 1102.0313,410.4688 L1102.0313,408.9688 Z "/><text fill="#000000" font-family="sans-serif" font-size="12" lengthAdjust="spacingAndGlyphs" textLength="37" x="1118.75" y="417.1543">Snake</text><line style="stroke: #A80036; stroke-width: 1.5;" x1="1012.5" x2="1229.5" y1="429" y2="429"/><rect fill="none" height="6" style="stroke: #C82930; stroke-width: 1.0;" width="6" x="1019.5" y="437"/><text fill="#000000" font-family="sans-serif" font-size="11" lengthAdjust="spacingAndGlyphs" textLength="49" x="1031.5" y="443.2104">score int</text><text fill="#000000" font-family="sans-serif" font-size="11" lengthAdjust="spacingAndGlyphs" textLength="0" x="1035.5" y="456.0151"/><ellipse cx="1022.5" cy="465.6094" fill="none" rx="3" ry="3" style="stroke: #038048; stroke-width: 1.0;"/><text fill="#000000" font-family="sans-serif" font-size="11" lengthAdjust="spacingAndGlyphs" textLength="82" x="1031.5" y="468.8198">Bodies Bodies</text><ellipse cx="1022.5" cy="478.4141" fill="none" rx="3" ry="3" style="stroke: #038048; stroke-width: 1.0;"/><text fill="#000000" font-family="sans-serif" font-size="11" lengthAdjust="spacingAndGlyphs" textLength="39" x="1031.5" y="481.6245">Len int</text><ellipse cx="1022.5" cy="491.2188" fill="none" rx="3" ry="3" style="stroke: #038048; stroke-width: 1.0;"/><text fill="#000000" font-family="sans-serif" font-size="11" lengthAdjust="spacingAndGlyphs" textLength="104" x="1031.5" y="494.4292">Direction direction</text><line style="stroke: #A80036; stroke-width: 1.5;" x1="1012.5" x2="1229.5" y1="501.0234" y2="501.0234"/><rect fill="#F24D5C" height="6" style="stroke: #C82930; stroke-width: 1.0;" width="6" x="1019.5" y="509.0234"/><text fill="#000000" font-family="sans-serif" font-size="11" lengthAdjust="spacingAndGlyphs" textLength="164" x="1031.5" y="515.2339">onSnake(c Coordinates) bool</text><rect fill="#F24D5C" height="6" style="stroke: #C82930; stroke-width: 1.0;" width="6" x="1019.5" y="521.8281"/><text fill="#000000" font-family="sans-serif" font-size="11" lengthAdjust="spacingAndGlyphs" textLength="149" x="1031.5" y="528.0386">detectBodyCollision() bool</text><rect fill="#F24D5C" height="6" style="stroke: #C82930; stroke-width: 1.0;" width="6" x="1019.5" y="534.6328"/><text fill="#000000" font-family="sans-serif" font-size="11" lengthAdjust="spacingAndGlyphs" textLength="121" x="1031.5" y="540.8433">appendHead(b Body)</text><rect fill="#F24D5C" height="6" style="stroke: #C82930; stroke-width: 1.0;" width="6" x="1019.5" y="547.4375"/><text fill="#000000" font-family="sans-serif" font-size="11" lengthAdjust="spacingAndGlyphs" textLength="52" x="1031.5" y="553.6479">shiftTail()</text><rect fill="#F24D5C" height="6" style="stroke: #C82930; stroke-width: 1.0;" width="6" x="1019.5" y="560.2422"/><text fill="#000000" font-family="sans-serif" font-size="11" lengthAdjust="spacingAndGlyphs" textLength="193" x="1031.5" y="566.4526">walk(w *World, direction direction)</text><text fill="#000000" font-family="sans-serif" font-size="11" lengthAdjust="spacingAndGlyphs" textLength="0" x="1035.5" y="579.2573"/><ellipse cx="1022.5" cy="588.8516" fill="#84BE84" rx="3" ry="3" style="stroke: #038048; stroke-width: 1.0;"/><text fill="#000000" font-family="sans-serif" font-size="11" lengthAdjust="spacingAndGlyphs" textLength="71" x="1031.5" y="592.062">Head() Body</text><!--MD5=[313c77af4d975938488b809b6a8fac0c]
class gosnake.Wall--><rect fill="#FEFECE" filter="url(#fh0oli8vcifua)" height="60.8047" id="gosnake.Wall" style="stroke: #A80036; stroke-width: 1.5;" width="178" x="404" y="467.5"/><ellipse cx="476.25" cy="483.5" fill="#FF7700" rx="11" ry="11" style="stroke: #A80036; stroke-width: 1.0;"/><path d="M476.6875,481.0313 L478.5313,481.0313 L478.5313,482.625 C478.5313,483.0156 478.5625,483.1875 478.6563,483.3281 C478.8125,483.5781 479.0938,483.7344 479.3906,483.7344 C479.6563,483.7344 479.9063,483.6094 480.0781,483.3906 C480.2188,483.2188 480.2344,483.0938 480.2344,482.625 L480.2344,479.3438 L471.4688,479.3438 L471.4688,482.625 C471.4688,483.0156 471.5,483.1875 471.5781,483.3281 C471.7344,483.5938 472.0313,483.7344 472.3125,483.7344 C472.5938,483.7344 472.8438,483.6094 473.0156,483.3906 C473.125,483.2188 473.1563,483.0781 473.1563,482.625 L473.1563,481.0313 L474.9844,481.0313 L474.9844,487.5469 L473.875,487.5469 C473.4375,487.5469 473.3125,487.5625 473.1563,487.6719 C472.9063,487.8281 472.75,488.1094 472.75,488.4063 C472.75,488.6563 472.8906,488.9219 473.1094,489.0781 C473.2656,489.2031 473.4844,489.25 473.875,489.25 L477.8125,489.25 C478.1406,489.25 478.4063,489.2031 478.5156,489.125 C478.7813,488.9844 478.9219,488.6875 478.9219,488.4063 C478.9219,488.125 478.7969,487.875 478.5625,487.7031 C478.4063,487.5781 478.2656,487.5469 477.8125,487.5469 L476.6875,487.5469 L476.6875,481.0313 Z "/><text fill="#000000" font-family="sans-serif" font-size="12" lengthAdjust="spacingAndGlyphs" textLength="25" x="496.75" y="487.6543">Wall</text><line style="stroke: #A80036; stroke-width: 1.5;" x1="405" x2="581" y1="499.5" y2="499.5"/><line style="stroke: #A80036; stroke-width: 1.5;" x1="405" x2="581" y1="507.5" y2="507.5"/><rect fill="#F24D5C" height="6" style="stroke: #C82930; stroke-width: 1.0;" width="6" x="412" y="515.5"/><text fill="#000000" font-family="sans-serif" font-size="11" lengthAdjust="spacingAndGlyphs" textLength="152" x="424" y="521.7104">onWall(c Coordinates) bool</text><!--MD5=[55e96d0cfd630134e20200fdc323e68b]
class gosnake.World--><rect fill="#FEFECE" filter="url(#fh0oli8vcifua)" height="163.2422" id="gosnake.World" style="stroke: #A80036; stroke-width: 1.5;" width="170" x="612" y="659"/><ellipse cx="674.75" cy="675" fill="#7FFFD4" rx="11" ry="11" style="stroke: #A80036; stroke-width: 1.0;"/><path d="M678.5313,670.9688 C678.5313,670.5313 678.5156,670.3906 678.4219,670.2344 C678.2813,670 678,669.8438 677.7031,669.8438 C677.3594,669.8438 677.2188,669.9844 677.0469,670.4063 C676.4531,670.0313 675.7031,669.8438 674.8281,669.8438 C672.7188,669.8438 671.1406,671.1406 671.1406,672.8594 C671.1406,673.8281 671.6719,674.7344 672.5313,675.2188 C673.0781,675.5313 673.625,675.7031 674.7344,675.8906 C675.8906,676.0938 676.1563,676.1563 676.5156,676.3438 C676.8906,676.5469 677.125,676.8906 677.125,677.25 C677.125,677.9844 676.1406,678.5313 674.8906,678.5313 C673.7656,678.5313 672.6875,678.0469 672.5156,677.4375 C672.3906,676.9688 672.3906,676.9688 672.2656,676.8594 C672.1094,676.7031 671.8906,676.6094 671.6563,676.6094 C671.375,676.6094 671.125,676.7344 670.9531,676.9531 C670.8438,677.125 670.7969,677.3125 670.7969,677.7344 L670.7969,678.8594 C670.7969,679.625 671.0781,679.9844 671.6719,679.9844 C671.9375,679.9844 672.0625,679.9219 672.3438,679.5781 C673.1875,680.0156 674.0781,680.2344 675,680.2344 C677.3281,680.2344 678.8906,679.0469 678.8906,677.2813 C678.8906,676.3906 678.5781,675.7031 677.8906,675.1563 C677.3594,674.7344 676.7188,674.4844 675.2344,674.2188 C673.9688,673.9844 673.875,673.9531 673.5469,673.7813 C673.1719,673.5938 672.9063,673.2031 672.9063,672.8438 C672.9063,672.1094 673.7656,671.5469 674.8281,671.5469 C675.8906,671.5469 676.7031,672.0156 676.8594,672.6875 C676.9688,673.2344 676.9688,673.2344 677.0938,673.375 C677.2344,673.5 677.4688,673.6094 677.7031,673.6094 C677.9688,673.6094 678.2188,673.4688 678.3906,673.25 C678.5,673.0781 678.5313,672.9375 678.5313,672.4688 L678.5313,670.9688 Z "/><text fill="#000000" font-family="sans-serif" font-size="12" lengthAdjust="spacingAndGlyphs" textLength="36" x="695.25" y="679.1543">World</text><line style="stroke: #A80036; stroke-width: 1.5;" x1="613" x2="781" y1="691" y2="691"/><rect fill="none" height="6" style="stroke: #C82930; stroke-width: 1.0;" width="6" x="620" y="699"/><text fill="#000000" font-family="sans-serif" font-size="11" lengthAdjust="spacingAndGlyphs" textLength="50" x="632" y="705.2104">wall Wall</text><text fill="#000000" font-family="sans-serif" font-size="11" lengthAdjust="spacingAndGlyphs" textLength="0" x="636" y="718.0151"/><ellipse cx="623" cy="727.6094" fill="none" rx="3" ry="3" style="stroke: #038048; stroke-width: 1.0;"/><text fill="#000000" font-family="sans-serif" font-size="11" lengthAdjust="spacingAndGlyphs" textLength="47" x="632" y="730.8198">XLen int</text><ellipse cx="623" cy="740.4141" fill="none" rx="3" ry="3" style="stroke: #038048; stroke-width: 1.0;"/><text fill="#000000" font-family="sans-serif" font-size="11" lengthAdjust="spacingAndGlyphs" textLength="76" x="632" y="743.6245">Snake Snake</text><ellipse cx="623" cy="753.2188" fill="none" rx="3" ry="3" style="stroke: #038048; stroke-width: 1.0;"/><text fill="#000000" font-family="sans-serif" font-size="11" lengthAdjust="spacingAndGlyphs" textLength="58" x="632" y="756.4292">Food Food</text><line style="stroke: #A80036; stroke-width: 1.5;" x1="613" x2="781" y1="763.0234" y2="763.0234"/><rect fill="#F24D5C" height="6" style="stroke: #C82930; stroke-width: 1.0;" width="6" x="620" y="771.0234"/><text fill="#000000" font-family="sans-serif" font-size="11" lengthAdjust="spacingAndGlyphs" textLength="144" x="632" y="777.2339">detectWallCollision() bool</text><rect fill="#F24D5C" height="6" style="stroke: #C82930; stroke-width: 1.0;" width="6" x="620" y="783.8281"/><text fill="#000000" font-family="sans-serif" font-size="11" lengthAdjust="spacingAndGlyphs" textLength="120" x="632" y="790.0386">detectCollision() bool</text><text fill="#000000" font-family="sans-serif" font-size="11" lengthAdjust="spacingAndGlyphs" textLength="0" x="636" y="802.8433"/><ellipse cx="623" cy="812.4375" fill="#84BE84" rx="3" ry="3" style="stroke: #038048; stroke-width: 1.0;"/><text fill="#000000" font-family="sans-serif" font-size="11" lengthAdjust="spacingAndGlyphs" textLength="79" x="632" y="815.6479">RefreshFood()</text><!--MD5=[ee656ae641f336fdf9c274512a4860ca]
class gosnake.WallGenerator--><rect fill="#FEFECE" filter="url(#fh0oli8vcifua)" height="48" id="gosnake.WallGenerator" style="stroke: #A80036; stroke-width: 1.5;" width="118" x="251" y="474"/><ellipse cx="266" cy="490" fill="#FF7700" rx="11" ry="11" style="stroke: #A80036; stroke-width: 1.0;"/><path d="M266.4375,487.5313 L268.2813,487.5313 L268.2813,489.125 C268.2813,489.5156 268.3125,489.6875 268.4063,489.8281 C268.5625,490.0781 268.8438,490.2344 269.1406,490.2344 C269.4063,490.2344 269.6563,490.1094 269.8281,489.8906 C269.9688,489.7188 269.9844,489.5938 269.9844,489.125 L269.9844,485.8438 L261.2188,485.8438 L261.2188,489.125 C261.2188,489.5156 261.25,489.6875 261.3281,489.8281 C261.4844,490.0938 261.7813,490.2344 262.0625,490.2344 C262.3438,490.2344 262.5938,490.1094 262.7656,489.8906 C262.875,489.7188 262.9063,489.5781 262.9063,489.125 L262.9063,487.5313 L264.7344,487.5313 L264.7344,494.0469 L263.625,494.0469 C263.1875,494.0469 263.0625,494.0625 262.9063,494.1719 C262.6563,494.3281 262.5,494.6094 262.5,494.9063 C262.5,495.1563 262.6406,495.4219 262.8594,495.5781 C263.0156,495.7031 263.2344,495.75 263.625,495.75 L267.5625,495.75 C267.8906,495.75 268.1563,495.7031 268.2656,495.625 C268.5313,495.4844 268.6719,495.1875 268.6719,494.9063 C268.6719,494.625 268.5469,494.375 268.3125,494.2031 C268.1563,494.0781 268.0156,494.0469 267.5625,494.0469 L266.4375,494.0469 L266.4375,487.5313 Z "/><text fill="#000000" font-family="sans-serif" font-size="12" lengthAdjust="spacingAndGlyphs" textLength="86" x="280" y="494.1543">WallGenerator</text><line style="stroke: #A80036; stroke-width: 1.5;" x1="252" x2="368" y1="506" y2="506"/><line style="stroke: #A80036; stroke-width: 1.5;" x1="252" x2="368" y1="514" y2="514"/><!--MD5=[7d88f28ccd5c40d7d0e7e5e3b2acb89e]
class gosnake.direction--><rect fill="#FEFECE" filter="url(#fh0oli8vcifua)" height="48" id="gosnake.direction" style="stroke: #A80036; stroke-width: 1.5;" width="85" x="514.5" y="270"/><ellipse cx="529.5" cy="286" fill="#FF7700" rx="11" ry="11" style="stroke: #A80036; stroke-width: 1.0;"/><path d="M529.9375,283.5313 L531.7813,283.5313 L531.7813,285.125 C531.7813,285.5156 531.8125,285.6875 531.9063,285.8281 C532.0625,286.0781 532.3438,286.2344 532.6406,286.2344 C532.9063,286.2344 533.1563,286.1094 533.3281,285.8906 C533.4688,285.7188 533.4844,285.5938 533.4844,285.125 L533.4844,281.8438 L524.7188,281.8438 L524.7188,285.125 C524.7188,285.5156 524.75,285.6875 524.8281,285.8281 C524.9844,286.0938 525.2813,286.2344 525.5625,286.2344 C525.8438,286.2344 526.0938,286.1094 526.2656,285.8906 C526.375,285.7188 526.4063,285.5781 526.4063,285.125 L526.4063,283.5313 L528.2344,283.5313 L528.2344,290.0469 L527.125,290.0469 C526.6875,290.0469 526.5625,290.0625 526.4063,290.1719 C526.1563,290.3281 526,290.6094 526,290.9063 C526,291.1563 526.1406,291.4219 526.3594,291.5781 C526.5156,291.7031 526.7344,291.75 527.125,291.75 L531.0625,291.75 C531.3906,291.75 531.6563,291.7031 531.7656,291.625 C532.0313,291.4844 532.1719,291.1875 532.1719,290.9063 C532.1719,290.625 532.0469,290.375 531.8125,290.2031 C531.6563,290.0781 531.5156,290.0469 531.0625,290.0469 L529.9375,290.0469 L529.9375,283.5313 Z "/><text fill="#000000" font-family="sans-serif" font-size="12" lengthAdjust="spacingAndGlyphs" textLength="53" x="543.5" y="290.1543">direction</text><line style="stroke: #A80036; stroke-width: 1.5;" x1="515.5" x2="598.5" y1="302" y2="302"/><line style="stroke: #A80036; stroke-width: 1.5;" x1="515.5" x2="598.5" y1="310" y2="310"/><!--MD5=[12cb18cc0471e8ffa23dca704ffee95d]
class gosnake.<font color=blue>func</font>(Coordinates) bool--><rect fill="#FEFECE" filter="url(#fh0oli8vcifua)" height="48" id="gosnake.&lt;font color=blue&gt;func&lt;/font&gt;(Coordinates) bool" style="stroke: #A80036; stroke-width: 1.5;" width="171" x="308.5" y="270"/><ellipse cx="323.5" cy="286" fill="#ADD1B2" rx="11" ry="11" style="stroke: #A80036; stroke-width: 1.0;"/><path d="M325.8438,281.6719 C324.9063,281.2344 324.3125,281.0938 323.4375,281.0938 C320.8125,281.0938 318.8125,283.1719 318.8125,285.8906 L318.8125,287.0156 C318.8125,289.5938 320.9219,291.4844 323.8125,291.4844 C325.0313,291.4844 326.1875,291.1875 326.9375,290.6406 C327.5156,290.2344 327.8438,289.7813 327.8438,289.3906 C327.8438,288.9375 327.4531,288.5469 326.9844,288.5469 C326.7656,288.5469 326.5625,288.625 326.375,288.8125 C325.9219,289.2969 325.9219,289.2969 325.7344,289.3906 C325.3125,289.6563 324.625,289.7813 323.8594,289.7813 C321.8125,289.7813 320.5156,288.6875 320.5156,286.9844 L320.5156,285.8906 C320.5156,284.1094 321.7656,282.7969 323.5,282.7969 C324.0781,282.7969 324.6875,282.9531 325.1563,283.2031 C325.6406,283.4844 325.8125,283.7031 325.9063,284.1094 C325.9688,284.5156 326,284.6406 326.1406,284.7656 C326.2813,284.9063 326.5156,285.0156 326.7344,285.0156 C327,285.0156 327.2656,284.875 327.4375,284.6563 C327.5469,284.5 327.5781,284.3125 327.5781,283.8906 L327.5781,282.4688 C327.5781,282.0313 327.5625,281.9063 327.4688,281.75 C327.3125,281.4844 327.0313,281.3438 326.7344,281.3438 C326.4375,281.3438 326.2344,281.4375 326.0156,281.75 L325.8438,281.6719 Z "/><text fill="#0000FF" font-family="sans-serif" font-size="12" lengthAdjust="spacingAndGlyphs" textLength="25" x="337.5" y="290.1543">func</text><text fill="#000000" font-family="sans-serif" font-size="12" lengthAdjust="spacingAndGlyphs" textLength="114" x="362.5" y="290.1543">(Coordinates) bool</text><line style="stroke: #A80036; stroke-width: 1.5;" x1="309.5" x2="478.5" y1="302" y2="302"/><line style="stroke: #A80036; stroke-width: 1.5;" x1="309.5" x2="478.5" y1="310" y2="310"/><!--MD5=[5641f6a9947b4745028d1d42b7481e3f]
class gosnake.<font color=blue>func</font>(World) Wall--><rect fill="#FEFECE" filter="url(#fh0oli8vcifua)" height="48" id="gosnake.&lt;font color=blue&gt;func&lt;/font&gt;(World) Wall" style="stroke: #A80036; stroke-width: 1.5;" width="132" x="141" y="270"/><ellipse cx="156" cy="286" fill="#ADD1B2" rx="11" ry="11" style="stroke: #A80036; stroke-width: 1.0;"/><path d="M158.3438,281.6719 C157.4063,281.2344 156.8125,281.0938 155.9375,281.0938 C153.3125,281.0938 151.3125,283.1719 151.3125,285.8906 L151.3125,287.0156 C151.3125,289.5938 153.4219,291.4844 156.3125,291.4844 C157.5313,291.4844 158.6875,291.1875 159.4375,290.6406 C160.0156,290.2344 160.3438,289.7813 160.3438,289.3906 C160.3438,288.9375 159.9531,288.5469 159.4844,288.5469 C159.2656,288.5469 159.0625,288.625 158.875,288.8125 C158.4219,289.2969 158.4219,289.2969 158.2344,289.3906 C157.8125,289.6563 157.125,289.7813 156.3594,289.7813 C154.3125,289.7813 153.0156,288.6875 153.0156,286.9844 L153.0156,285.8906 C153.0156,284.1094 154.2656,282.7969 156,282.7969 C156.5781,282.7969 157.1875,282.9531 157.6563,283.2031 C158.1406,283.4844 158.3125,283.7031 158.4063,284.1094 C158.4688,284.5156 158.5,284.6406 158.6406,284.7656 C158.7813,284.9063 159.0156,285.0156 159.2344,285.0156 C159.5,285.0156 159.7656,284.875 159.9375,284.6563 C160.0469,284.5 160.0781,284.3125 160.0781,283.8906 L160.0781,282.4688 C160.0781,282.0313 160.0625,281.9063 159.9688,281.75 C159.8125,281.4844 159.5313,281.3438 159.2344,281.3438 C158.9375,281.3438 158.7344,281.4375 158.5156,281.75 L158.3438,281.6719 Z "/><text fill="#0000FF" font-family="sans-serif" font-size="12" lengthAdjust="spacingAndGlyphs" textLength="25" x="170" y="290.1543">func</text><text fill="#000000" font-family="sans-serif" font-size="12" lengthAdjust="spacingAndGlyphs" textLength="75" x="195" y="290.1543">(World) Wall</text><line style="stroke: #A80036; stroke-width: 1.5;" x1="142" x2="272" y1="302" y2="302"/><line style="stroke: #A80036; stroke-width: 1.5;" x1="142" x2="272" y1="310" y2="310"/><!--MD5=[6b8d09ff4ad7805d5e7a60b5a06cdb7a]
class gosnake.[]Body--><rect fill="#FEFECE" filter="url(#fh0oli8vcifua)" height="48" id="gosnake.[]Body" style="stroke: #A80036; stroke-width: 1.5;" width="73" x="32.5" y="270"/><ellipse cx="47.5" cy="286" fill="#ADD1B2" rx="11" ry="11" style="stroke: #A80036; stroke-width: 1.0;"/><path d="M49.8438,281.6719 C48.9063,281.2344 48.3125,281.0938 47.4375,281.0938 C44.8125,281.0938 42.8125,283.1719 42.8125,285.8906 L42.8125,287.0156 C42.8125,289.5938 44.9219,291.4844 47.8125,291.4844 C49.0313,291.4844 50.1875,291.1875 50.9375,290.6406 C51.5156,290.2344 51.8438,289.7813 51.8438,289.3906 C51.8438,288.9375 51.4531,288.5469 50.9844,288.5469 C50.7656,288.5469 50.5625,288.625 50.375,288.8125 C49.9219,289.2969 49.9219,289.2969 49.7344,289.3906 C49.3125,289.6563 48.625,289.7813 47.8594,289.7813 C45.8125,289.7813 44.5156,288.6875 44.5156,286.9844 L44.5156,285.8906 C44.5156,284.1094 45.7656,282.7969 47.5,282.7969 C48.0781,282.7969 48.6875,282.9531 49.1563,283.2031 C49.6406,283.4844 49.8125,283.7031 49.9063,284.1094 C49.9688,284.5156 50,284.6406 50.1406,284.7656 C50.2813,284.9063 50.5156,285.0156 50.7344,285.0156 C51,285.0156 51.2656,284.875 51.4375,284.6563 C51.5469,284.5 51.5781,284.3125 51.5781,283.8906 L51.5781,282.4688 C51.5781,282.0313 51.5625,281.9063 51.4688,281.75 C51.3125,281.4844 51.0313,281.3438 50.7344,281.3438 C50.4375,281.3438 50.2344,281.4375 50.0156,281.75 L49.8438,281.6719 Z "/><text fill="#000000" font-family="sans-serif" font-size="12" lengthAdjust="spacingAndGlyphs" textLength="41" x="61.5" y="290.1543">[]Body</text><line style="stroke: #A80036; stroke-width: 1.5;" x1="33.5" x2="104.5" y1="302" y2="302"/><line style="stroke: #A80036; stroke-width: 1.5;" x1="33.5" x2="104.5" y1="310" y2="310"/><!--MD5=[eb1726d692a7371537a2751bd9d91eb8]
class main.gameBox--><rect fill="#FEFECE" filter="url(#fh0oli8vcifua)" height="150.4375" id="main.gameBox" style="stroke: #A80036; stroke-width: 1.5;" width="155" x="1459.5" y="41"/><ellipse cx="1504.25" cy="57" fill="#7FFFD4" rx="11" ry="11" style="stroke: #A80036; stroke-width: 1.0;"/><path d="M1508.0313,52.9688 C1508.0313,52.5313 1508.0156,52.3906 1507.9219,52.2344 C1507.7813,52 1507.5,51.8438 1507.2031,51.8438 C1506.8594,51.8438 1506.7188,51.9844 1506.5469,52.4063 C1505.9531,52.0313 1505.2031,51.8438 1504.3281,51.8438 C1502.2188,51.8438 1500.6406,53.1406 1500.6406,54.8594 C1500.6406,55.8281 1501.1719,56.7344 1502.0313,57.2188 C1502.5781,57.5313 1503.125,57.7031 1504.2344,57.8906 C1505.3906,58.0938 1505.6563,58.1563 1506.0156,58.3438 C1506.3906,58.5469 1506.625,58.8906 1506.625,59.25 C1506.625,59.9844 1505.6406,60.5313 1504.3906,60.5313 C1503.2656,60.5313 1502.1875,60.0469 1502.0156,59.4375 C1501.8906,58.9688 1501.8906,58.9688 1501.7656,58.8594 C1501.6094,58.7031 1501.3906,58.6094 1501.1563,58.6094 C1500.875,58.6094 1500.625,58.7344 1500.4531,58.9531 C1500.3438,59.125 1500.2969,59.3125 1500.2969,59.7344 L1500.2969,60.8594 C1500.2969,61.625 1500.5781,61.9844 1501.1719,61.9844 C1501.4375,61.9844 1501.5625,61.9219 1501.8438,61.5781 C1502.6875,62.0156 1503.5781,62.2344 1504.5,62.2344 C1506.8281,62.2344 1508.3906,61.0469 1508.3906,59.2813 C1508.3906,58.3906 1508.0781,57.7031 1507.3906,57.1563 C1506.8594,56.7344 1506.2188,56.4844 1504.7344,56.2188 C1503.4688,55.9844 1503.375,55.9531 1503.0469,55.7813 C1502.6719,55.5938 1502.4063,55.2031 1502.4063,54.8438 C1502.4063,54.1094 1503.2656,53.5469 1504.3281,53.5469 C1505.3906,53.5469 1506.2031,54.0156 1506.3594,54.6875 C1506.4688,55.2344 1506.4688,55.2344 1506.5938,55.375 C1506.7344,55.5 1506.9688,55.6094 1507.2031,55.6094 C1507.4688,55.6094 1507.7188,55.4688 1507.8906,55.25 C1508,55.0781 1508.0313,54.9375 1508.0313,54.4688 L1508.0313,52.9688 Z "/><text fill="#000000" font-family="sans-serif" font-size="12" lengthAdjust="spacingAndGlyphs" textLength="57" x="1524.75" y="61.1543">gameBox</text><line style="stroke: #A80036; stroke-width: 1.5;" x1="1460.5" x2="1613.5" y1="73" y2="73"/><rect fill="none" height="6" style="stroke: #C82930; stroke-width: 1.0;" width="6" x="1467.5" y="81"/><text fill="#000000" font-family="sans-serif" font-size="11" lengthAdjust="spacingAndGlyphs" textLength="129" x="1479.5" y="87.2104">game *gosnake.Game</text><rect fill="none" height="6" style="stroke: #C82930; stroke-width: 1.0;" width="6" x="1467.5" y="93.8047"/><text fill="#000000" font-family="sans-serif" font-size="11" lengthAdjust="spacingAndGlyphs" textLength="42" x="1479.5" y="100.0151">xOff int</text><rect fill="none" height="6" style="stroke: #C82930; stroke-width: 1.0;" width="6" x="1467.5" y="106.6094"/><text fill="#000000" font-family="sans-serif" font-size="11" lengthAdjust="spacingAndGlyphs" textLength="60" x="1479.5" y="112.8198">style style</text><line style="stroke: #A80036; stroke-width: 1.5;" x1="1460.5" x2="1613.5" y1="119.4141" y2="119.4141"/><rect fill="#F24D5C" height="6" style="stroke: #C82930; stroke-width: 1.0;" width="6" x="1467.5" y="127.4141"/><text fill="#000000" font-family="sans-serif" font-size="11" lengthAdjust="spacingAndGlyphs" textLength="71" x="1479.5" y="133.6245">drawSnake()</text><rect fill="#F24D5C" height="6" style="stroke: #C82930; stroke-width: 1.0;" width="6" x="1467.5" y="140.2188"/><text fill="#000000" font-family="sans-serif" font-size="11" lengthAdjust="spacingAndGlyphs" textLength="62" x="1479.5" y="146.4292">drawFood()</text><rect fill="#F24D5C" height="6" style="stroke: #C82930; stroke-width: 1.0;" width="6" x="1467.5" y="153.0234"/><text fill="#000000" font-family="sans-serif" font-size="11" lengthAdjust="spacingAndGlyphs" textLength="59" x="1479.5" y="159.2339">drawWall()</text><rect fill="#F24D5C" height="6" style="stroke: #C82930; stroke-width: 1.0;" width="6" x="1467.5" y="165.8281"/><text fill="#000000" font-family="sans-serif" font-size="11" lengthAdjust="spacingAndGlyphs" textLength="113" x="1479.5" y="172.0386">updateAndDrawAll()</text><rect fill="#F24D5C" height="6" style="stroke: #C82930; stroke-width: 1.0;" width="6" x="1467.5" y="178.6328"/><text fill="#000000" font-family="sans-serif" font-size="11" lengthAdjust="spacingAndGlyphs" textLength="71" x="1479.5" y="184.8433">drawStatus()</text><!--MD5=[e9c3ae357d0710d19270ba54eb705fd2]
class main.color--><rect fill="#FEFECE" filter="url(#fh0oli8vcifua)" height="48" id="main.color" style="stroke: #A80036; stroke-width: 1.5;" width="63" x="1324.5" y="270"/><ellipse cx="1339.5" cy="286" fill="#FF7700" rx="11" ry="11" style="stroke: #A80036; stroke-width: 1.0;"/><path d="M1339.9375,283.5313 L1341.7813,283.5313 L1341.7813,285.125 C1341.7813,285.5156 1341.8125,285.6875 1341.9063,285.8281 C1342.0625,286.0781 1342.3438,286.2344 1342.6406,286.2344 C1342.9063,286.2344 1343.1563,286.1094 1343.3281,285.8906 C1343.4688,285.7188 1343.4844,285.5938 1343.4844,285.125 L1343.4844,281.8438 L1334.7188,281.8438 L1334.7188,285.125 C1334.7188,285.5156 1334.75,285.6875 1334.8281,285.8281 C1334.9844,286.0938 1335.2813,286.2344 1335.5625,286.2344 C1335.8438,286.2344 1336.0938,286.1094 1336.2656,285.8906 C1336.375,285.7188 1336.4063,285.5781 1336.4063,285.125 L1336.4063,283.5313 L1338.2344,283.5313 L1338.2344,290.0469 L1337.125,290.0469 C1336.6875,290.0469 1336.5625,290.0625 1336.4063,290.1719 C1336.1563,290.3281 1336,290.6094 1336,290.9063 C1336,291.1563 1336.1406,291.4219 1336.3594,291.5781 C1336.5156,291.7031 1336.7344,291.75 1337.125,291.75 L1341.0625,291.75 C1341.3906,291.75 1341.6563,291.7031 1341.7656,291.625 C1342.0313,291.4844 1342.1719,291.1875 1342.1719,290.9063 C1342.1719,290.625 1342.0469,290.375 1341.8125,290.2031 C1341.6563,290.0781 1341.5156,290.0469 1341.0625,290.0469 L1339.9375,290.0469 L1339.9375,283.5313 Z "/><text fill="#000000" font-family="sans-serif" font-size="12" lengthAdjust="spacingAndGlyphs" textLength="31" x="1353.5" y="290.1543">color</text><line style="stroke: #A80036; stroke-width: 1.5;" x1="1325.5" x2="1386.5" y1="302" y2="302"/><line style="stroke: #A80036; stroke-width: 1.5;" x1="1325.5" x2="1386.5" y1="310" y2="310"/><!--MD5=[3d10d116b0092b3fa223d02b28c8c8e5]
class main.snake--><rect fill="#FEFECE" filter="url(#fh0oli8vcifua)" height="60.8047" id="main.snake" style="stroke: #A80036; stroke-width: 1.5;" width="85" x="1649.5" y="85.5"/><ellipse cx="1672.15" cy="101.5" fill="#7FFFD4" rx="11" ry="11" style="stroke: #A80036; stroke-width: 1.0;"/><path d="M1675.9313,97.4688 C1675.9313,97.0313 1675.9156,96.8906 1675.8219,96.7344 C1675.6813,96.5 1675.4,96.3438 1675.1031,96.3438 C1674.7594,96.3438 1674.6188,96.4844 1674.4469,96.9063 C1673.8531,96.5313 1673.1031,96.3438 1672.2281,96.3438 C1670.1188,96.3438 1668.5406,97.6406 1668.5406,99.3594 C1668.5406,100.3281 1669.0719,101.2344 1669.9313,101.7188 C1670.4781,102.0313 1671.025,102.2031 1672.1344,102.3906 C1673.2906,102.5938 1673.5563,102.6563 1673.9156,102.8438 C1674.2906,103.0469 1674.525,103.3906 1674.525,103.75 C1674.525,104.4844 1673.5406,105.0313 1672.2906,105.0313 C1671.1656,105.0313 1670.0875,104.5469 1669.9156,103.9375 C1669.7906,103.4688 1669.7906,103.4688 1669.6656,103.3594 C1669.5094,103.2031 1669.2906,103.1094 1669.0563,103.1094 C1668.775,103.1094 1668.525,103.2344 1668.3531,103.4531 C1668.2438,103.625 1668.1969,103.8125 1668.1969,104.2344 L1668.1969,105.3594 C1668.1969,106.125 1668.4781,106.4844 1669.0719,106.4844 C1669.3375,106.4844 1669.4625,106.4219 1669.7438,106.0781 C1670.5875,106.5156 1671.4781,106.7344 1672.4,106.7344 C1674.7281,106.7344 1676.2906,105.5469 1676.2906,103.7813 C1676.2906,102.8906 1675.9781,102.2031 1675.2906,101.6563 C1674.7594,101.2344 1674.1188,100.9844 1672.6344,100.7188 C1671.3688,100.4844 1671.275,100.4531 1670.9469,100.2813 C1670.5719,100.0938 1670.3063,99.7031 1670.3063,99.3438 C1670.3063,98.6094 1671.1656,98.0469 1672.2281,98.0469 C1673.2906,98.0469 1674.1031,98.5156 1674.2594,99.1875 C1674.3688,99.7344 1674.3688,99.7344 1674.4938,99.875 C1674.6344,100 1674.8688,100.1094 1675.1031,100.1094 C1675.3688,100.1094 1675.6188,99.9688 1675.7906,99.75 C1675.9,99.5781 1675.9313,99.4375 1675.9313,98.9688 L1675.9313,97.4688 Z "/><text fill="#000000" font-family="sans-serif" font-size="12" lengthAdjust="spacingAndGlyphs" textLength="36" x="1687.85" y="105.6543">snake</text><line style="stroke: #A80036; stroke-width: 1.5;" x1="1650.5" x2="1733.5" y1="117.5" y2="117.5"/><rect fill="none" height="6" style="stroke: #C82930; stroke-width: 1.0;" width="6" x="1657.5" y="125.5"/><text fill="#000000" font-family="sans-serif" font-size="11" lengthAdjust="spacingAndGlyphs" textLength="59" x="1669.5" y="131.7104">head rune</text><line style="stroke: #A80036; stroke-width: 1.5;" x1="1650.5" x2="1733.5" y1="138.3047" y2="138.3047"/><!--MD5=[7e31b9f496267f2e836b28c2f0bc8d6a]
class main.style--><rect fill="#FEFECE" filter="url(#fh0oli8vcifua)" height="86.4141" id="main.style" style="stroke: #A80036; stroke-width: 1.5;" width="98" x="1488" y="251"/><ellipse cx="1519.65" cy="267" fill="#7FFFD4" rx="11" ry="11" style="stroke: #A80036; stroke-width: 1.0;"/><path d="M1523.4313,262.9688 C1523.4313,262.5313 1523.4156,262.3906 1523.3219,262.2344 C1523.1813,262 1522.9,261.8438 1522.6031,261.8438 C1522.2594,261.8438 1522.1188,261.9844 1521.9469,262.4063 C1521.3531,262.0313 1520.6031,261.8438 1519.7281,261.8438 C1517.6188,261.8438 1516.0406,263.1406 1516.0406,264.8594 C1516.0406,265.8281 1516.5719,266.7344 1517.4313,267.2188 C1517.9781,267.5313 1518.525,267.7031 1519.6344,267.8906 C1520.7906,268.0938 1521.0563,268.1563 1521.4156,268.3438 C1521.7906,268.5469 1522.025,268.8906 1522.025,269.25 C1522.025,269.9844 1521.0406,270.5313 1519.7906,270.5313 C1518.6656,270.5313 1517.5875,270.0469 1517.4156,269.4375 C1517.2906,268.9688 1517.2906,268.9688 1517.1656,268.8594 C1517.0094,268.7031 1516.7906,268.6094 1516.5563,268.6094 C1516.275,268.6094 1516.025,268.7344 1515.8531,268.9531 C1515.7438,269.125 1515.6969,269.3125 1515.6969,269.7344 L1515.6969,270.8594 C1515.6969,271.625 1515.9781,271.9844 1516.5719,271.9844 C1516.8375,271.9844 1516.9625,271.9219 1517.2438,271.5781 C1518.0875,272.0156 1518.9781,272.2344 1519.9,272.2344 C1522.2281,272.2344 1523.7906,271.0469 1523.7906,269.2813 C1523.7906,268.3906 1523.4781,267.7031 1522.7906,267.1563 C1522.2594,266.7344 1521.6188,266.4844 1520.1344,266.2188 C1518.8688,265.9844 1518.775,265.9531 1518.4469,265.7813 C1518.0719,265.5938 1517.8063,265.2031 1517.8063,264.8438 C1517.8063,264.1094 1518.6656,263.5469 1519.7281,263.5469 C1520.7906,263.5469 1521.6031,264.0156 1521.7594,264.6875 C1521.8688,265.2344 1521.8688,265.2344 1521.9938,265.375 C1522.1344,265.5 1522.3688,265.6094 1522.6031,265.6094 C1522.8688,265.6094 1523.1188,265.4688 1523.2906,265.25 C1523.4,265.0781 1523.4313,264.9375 1523.4313,264.4688 L1523.4313,262.9688 Z "/><text fill="#000000" font-family="sans-serif" font-size="12" lengthAdjust="spacingAndGlyphs" textLength="29" x="1537.35" y="271.1543">style</text><line style="stroke: #A80036; stroke-width: 1.5;" x1="1489" x2="1585" y1="283" y2="283"/><rect fill="none" height="6" style="stroke: #C82930; stroke-width: 1.0;" width="6" x="1496" y="291"/><text fill="#000000" font-family="sans-serif" font-size="11" lengthAdjust="spacingAndGlyphs" textLength="72" x="1508" y="297.2104">snake snake</text><rect fill="none" height="6" style="stroke: #C82930; stroke-width: 1.0;" width="6" x="1496" y="303.8047"/><text fill="#000000" font-family="sans-serif" font-size="11" lengthAdjust="spacingAndGlyphs" textLength="55" x="1508" y="310.0151">food rune</text><rect fill="none" height="6" style="stroke: #C82930; stroke-width: 1.0;" width="6" x="1496" y="316.6094"/><text fill="#000000" font-family="sans-serif" font-size="11" lengthAdjust="spacingAndGlyphs" textLength="48" x="1508" y="322.8198">wall wall</text><line style="stroke: #A80036; stroke-width: 1.5;" x1="1489" x2="1585" y1="329.4141" y2="329.4141"/><!--MD5=[ffe4da997e4d29951aee8e07d9e0b26d]
class main.wall--><rect fill="#FEFECE" filter="url(#fh0oli8vcifua)" height="73.6094" id="main.wall" style="stroke: #A80036; stroke-width: 1.5;" width="106" x="1621" y="257"/><ellipse cx="1658.95" cy="273" fill="#7FFFD4" rx="11" ry="11" style="stroke: #A80036; stroke-width: 1.0;"/><path d="M1662.7313,268.9688 C1662.7313,268.5313 1662.7156,268.3906 1662.6219,268.2344 C1662.4813,268 1662.2,267.8438 1661.9031,267.8438 C1661.5594,267.8438 1661.4188,267.9844 1661.2469,268.4063 C1660.6531,268.0313 1659.9031,267.8438 1659.0281,267.8438 C1656.9188,267.8438 1655.3406,269.1406 1655.3406,270.8594 C1655.3406,271.8281 1655.8719,272.7344 1656.7313,273.2188 C1657.2781,273.5313 1657.825,273.7031 1658.9344,273.8906 C1660.0906,274.0938 1660.3563,274.1563 1660.7156,274.3438 C1661.0906,274.5469 1661.325,274.8906 1661.325,275.25 C1661.325,275.9844 1660.3406,276.5313 1659.0906,276.5313 C1657.9656,276.5313 1656.8875,276.0469 1656.7156,275.4375 C1656.5906,274.9688 1656.5906,274.9688 1656.4656,274.8594 C1656.3094,274.7031 1656.0906,274.6094 1655.8563,274.6094 C1655.575,274.6094 1655.325,274.7344 1655.1531,274.9531 C1655.0438,275.125 1654.9969,275.3125 1654.9969,275.7344 L1654.9969,276.8594 C1654.9969,277.625 1655.2781,277.9844 1655.8719,277.9844 C1656.1375,277.9844 1656.2625,277.9219 1656.5438,277.5781 C1657.3875,278.0156 1658.2781,278.2344 1659.2,278.2344 C1661.5281,278.2344 1663.0906,277.0469 1663.0906,275.2813 C1663.0906,274.3906 1662.7781,273.7031 1662.0906,273.1563 C1661.5594,272.7344 1660.9188,272.4844 1659.4344,272.2188 C1658.1688,271.9844 1658.075,271.9531 1657.7469,271.7813 C1657.3719,271.5938 1657.1063,271.2031 1657.1063,270.8438 C1657.1063,270.1094 1657.9656,269.5469 1659.0281,269.5469 C1660.0906,269.5469 1660.9031,270.0156 1661.0594,270.6875 C1661.1688,271.2344 1661.1688,271.2344 1661.2938,271.375 C1661.4344,271.5 1661.6688,271.6094 1661.9031,271.6094 C1662.1688,271.6094 1662.4188,271.4688 1662.5906,271.25 C1662.7,271.0781 1662.7313,270.9375 1662.7313,270.4688 L1662.7313,268.9688 Z "/><text fill="#000000" font-family="sans-serif" font-size="12" lengthAdjust="spacingAndGlyphs" textLength="23" x="1678.05" y="277.1543">wall</text><line style="stroke: #A80036; stroke-width: 1.5;" x1="1622" x2="1726" y1="289" y2="289"/><rect fill="none" height="6" style="stroke: #C82930; stroke-width: 1.0;" width="6" x="1629" y="297"/><text fill="#000000" font-family="sans-serif" font-size="11" lengthAdjust="spacingAndGlyphs" textLength="80" x="1641" y="303.2104">corners []rune</text><rect fill="none" height="6" style="stroke: #C82930; stroke-width: 1.0;" width="6" x="1629" y="309.8047"/><text fill="#000000" font-family="sans-serif" font-size="11" lengthAdjust="spacingAndGlyphs" textLength="48" x="1641" y="316.0151">top rune</text><line style="stroke: #A80036; stroke-width: 1.5;" x1="1622" x2="1726" y1="322.6094" y2="322.6094"/><!--MD5=[5b840d56b15d8f9d6763af27ffcf205c]
class main.termboxAttribute--><rect fill="#FEFECE" filter="url(#fh0oli8vcifua)" height="48" id="main.termboxAttribute" style="stroke: #A80036; stroke-width: 1.5;" width="137" x="1287.5" y="92"/><ellipse cx="1302.5" cy="108" fill="#ADD1B2" rx="11" ry="11" style="stroke: #A80036; stroke-width: 1.0;"/><path d="M1304.8438,103.6719 C1303.9063,103.2344 1303.3125,103.0938 1302.4375,103.0938 C1299.8125,103.0938 1297.8125,105.1719 1297.8125,107.8906 L1297.8125,109.0156 C1297.8125,111.5938 1299.9219,113.4844 1302.8125,113.4844 C1304.0313,113.4844 1305.1875,113.1875 1305.9375,112.6406 C1306.5156,112.2344 1306.8438,111.7813 1306.8438,111.3906 C1306.8438,110.9375 1306.4531,110.5469 1305.9844,110.5469 C1305.7656,110.5469 1305.5625,110.625 1305.375,110.8125 C1304.9219,111.2969 1304.9219,111.2969 1304.7344,111.3906 C1304.3125,111.6563 1303.625,111.7813 1302.8594,111.7813 C1300.8125,111.7813 1299.5156,110.6875 1299.5156,108.9844 L1299.5156,107.8906 C1299.5156,106.1094 1300.7656,104.7969 1302.5,104.7969 C1303.0781,104.7969 1303.6875,104.9531 1304.1563,105.2031 C1304.6406,105.4844 1304.8125,105.7031 1304.9063,106.1094 C1304.9688,106.5156 1305,106.6406 1305.1406,106.7656 C1305.2813,106.9063 1305.5156,107.0156 1305.7344,107.0156 C1306,107.0156 1306.2656,106.875 1306.4375,106.6563 C1306.5469,106.5 1306.5781,106.3125 1306.5781,105.8906 L1306.5781,104.4688 C1306.5781,104.0313 1306.5625,103.9063 1306.4688,103.75 C1306.3125,103.4844 1306.0313,103.3438 1305.7344,103.3438 C1305.4375,103.3438 1305.2344,103.4375 1305.0156,103.75 L1304.8438,103.6719 Z "/><text fill="#000000" font-family="sans-serif" font-size="12" lengthAdjust="spacingAndGlyphs" textLength="105" x="1316.5" y="112.1543">termbox.Attribute</text><line style="stroke: #A80036; stroke-width: 1.5;" x1="1288.5" x2="1423.5" y1="124" y2="124"/><line style="stroke: #A80036; stroke-width: 1.5;" x1="1288.5" x2="1423.5" y1="132" y2="132"/><!--MD5=[2236f6c5d9deadb4f6bceeb4cf3ac6c7]
class __builtin__.int--><rect fill="#FEFECE" filter="url(#fh0oli8vcifua)" height="48" id="__builtin__.int" style="stroke: #A80036; stroke-width: 1.5;" width="46" x="534" y="92"/><ellipse cx="549" cy="108" fill="#ADD1B2" rx="11" ry="11" style="stroke: #A80036; stroke-width: 1.0;"/><path d="M551.3438,103.6719 C550.4063,103.2344 549.8125,103.0938 548.9375,103.0938 C546.3125,103.0938 544.3125,105.1719 544.3125,107.8906 L544.3125,109.0156 C544.3125,111.5938 546.4219,113.4844 549.3125,113.4844 C550.5313,113.4844 551.6875,113.1875 552.4375,112.6406 C553.0156,112.2344 553.3438,111.7813 553.3438,111.3906 C553.3438,110.9375 552.9531,110.5469 552.4844,110.5469 C552.2656,110.5469 552.0625,110.625 551.875,110.8125 C551.4219,111.2969 551.4219,111.2969 551.2344,111.3906 C550.8125,111.6563 550.125,111.7813 549.3594,111.7813 C547.3125,111.7813 546.0156,110.6875 546.0156,108.9844 L546.0156,107.8906 C546.0156,106.1094 547.2656,104.7969 549,104.7969 C549.5781,104.7969 550.1875,104.9531 550.6563,105.2031 C551.1406,105.4844 551.3125,105.7031 551.4063,106.1094 C551.4688,106.5156 551.5,106.6406 551.6406,106.7656 C551.7813,106.9063 552.0156,107.0156 552.2344,107.0156 C552.5,107.0156 552.7656,106.875 552.9375,106.6563 C553.0469,106.5 553.0781,106.3125 553.0781,105.8906 L553.0781,104.4688 C553.0781,104.0313 553.0625,103.9063 552.9688,103.75 C552.8125,103.4844 552.5313,103.3438 552.2344,103.3438 C551.9375,103.3438 551.7344,103.4375 551.5156,103.75 L551.3438,103.6719 Z "/><text fill="#000000" font-family="sans-serif" font-size="12" lengthAdjust="spacingAndGlyphs" textLength="14" x="563" y="112.1543">int</text><line style="stroke: #A80036; stroke-width: 1.5;" x1="535" x2="579" y1="124" y2="124"/><line style="stroke: #A80036; stroke-width: 1.5;" x1="535" x2="579" y1="132" y2="132"/><!--MD5=[172cfe904f359f848ba5beb74781b316]
reverse link __builtin__.int to gosnake.direction--><path d="M557,145.363 C557,180.014 557,237.965 557,269.985 " fill="none" id="__builtin__.int&lt;-gosnake.direction" style="stroke: #A80036; stroke-width: 1.0; stroke-dasharray: 7.0,7.0;"/><rect fill="#FFFFFF" height="10" style="stroke: #A80036; stroke-width: 1.5;" width="10" x="552" y="135.009"/><!--MD5=[bc90a20d1e9c75f4522ad9472e4f1832]
reverse link gosnake.<font color=blue>func</font>(Coordinates) bool to gosnake.Wall--><path d="M407.773,323.103 C426.38,361.069 459.402,428.447 478.417,467.245 " fill="none" id="gosnake.&lt;font color=blue&gt;func&lt;/font&gt;(Coordinates) bool&lt;-gosnake.Wall" style="stroke: #A80036; stroke-width: 1.0; stroke-dasharray: 7.0,7.0;"/><rect fill="#FFFFFF" height="10" style="stroke: #A80036; stroke-width: 1.5;" width="10" x="400.357" y="313.172"/><!--MD5=[b9eb7240fff4b8a7c815fa57397ce558]
reverse link gosnake.<font color=blue>func</font>(World) Wall to gosnake.WallGenerator--><path d="M221.226,322.9 C241.702,363.057 279.11,436.419 298.164,473.788 " fill="none" id="gosnake.&lt;font color=blue&gt;func&lt;/font&gt;(World) Wall&lt;-gosnake.WallGenerator" style="stroke: #A80036; stroke-width: 1.0; stroke-dasharray: 7.0,7.0;"/><rect fill="#FFFFFF" height="10" style="stroke: #A80036; stroke-width: 1.5;" width="10" x="213.815" y="313.172"/><!--MD5=[be962c41a7d076f7112be6c86aa7c64b]
reverse link gosnake.[]Body to gosnake.Bodies--><path d="M76.702,323.288 C85.0353,353.893 98.5301,403.456 108.977,441.823 " fill="none" id="gosnake.[]Body&lt;-gosnake.Bodies" style="stroke: #A80036; stroke-width: 1.0; stroke-dasharray: 7.0,7.0;"/><rect fill="#FFFFFF" height="10" style="stroke: #A80036; stroke-width: 1.5;" width="10" x="70.3092" y="313.172"/><!--MD5=[20f06075e3c61355355f77b5cb4ca64b]
reverse link main.termboxAttribute to main.color--><path d="M1356,145.363 C1356,180.014 1356,237.965 1356,269.985 " fill="none" id="main.termboxAttribute&lt;-main.color" style="stroke: #A80036; stroke-width: 1.0; stroke-dasharray: 7.0,7.0;"/><rect fill="#FFFFFF" height="10" style="stroke: #A80036; stroke-width: 1.5;" width="10" x="1351" y="135.009"/><!--MD5=[032c3c32f0c05f71b7890d62b9b54764]
link gosnake.Body to gosnake.Coordinates--><!--MD5=[6a75de70432ecbfeb301ee02a8641ef7]
link gosnake.Coordinates to gosnake.Food--><!--MD5=[6b55ca8e47889340bcba1e5469b9eda0]
link gosnake.Body to gosnake.Game--><!--MD5=[a8e0eb767615941c602efb5584d92edc]
link gosnake.Game to gosnake.GameConfig--><!--MD5=[e7e16a00f57ed8629b14320ec6f8cca4]
link gosnake.GameConfig to gosnake.Snake--><!--MD5=[199a8c2051711431dc44c034e8ccb1cc]
link gosnake.Game to gosnake.World--><!--MD5=[a0f3de1b9f787e49c23599452e5fa51d]
link main.gameBox to main.snake--><!--MD5=[d069b1b7793e29208be33bf1220ef7fa]
link main.gameBox to main.style--><!--MD5=[baba7a704bc757461a37c1111e7c7935]
link main.style to main.wall--><!--MD5=[a7801f4889782e030b26bcca4e2f136d]
@startuml
namespace gosnake {
    class Bodies << (S,Aquamarine) >> {
        - head() Body
        - any(f <font color=blue>func</font>(Body) bool) bool
        - match(f <font color=blue>func</font>(Body) bool) int
        - appendHead(b Body) 
        - shiftTail() 

    }
    class Body << (S,Aquamarine) >> {
        + X int

        + Coordinates() Coordinates

    }
    class Coordinates << (S,Aquamarine) >> {
        - x int

        + String() string
        + Equal(co Coordinates) bool

    }
    class Food << (S,Aquamarine) >> {
        + X int

        + Coordinates() Coordinates

    }
    class Game << (S,Aquamarine) >> {
        - isOver bool

        + World World

        + Score() int
        + IsOver() bool
        + WalkUp() 
        + WalkDown() 
        + WalkLeft() 
        + WalkRight() 

    }
    class GameConfig << (S,Aquamarine) >> {
        + XLen int
        + BabySnake Snake
        + InitFood Food
        + WallGenerator WallGenerator

    }
    class Snake << (S,Aquamarine) >> {
        - score int

        + Bodies Bodies
        + Len int
        + Direction direction

        - onSnake(c Coordinates) bool
        - detectBodyCollision() bool
        - appendHead(b Body) 
        - shiftTail() 
        - walk(w *World, direction direction) 

        + Head() Body

    }
    class Wall << (S,Aquamarine) >> {
        - onWall(c Coordinates) bool

    }
    class World << (S,Aquamarine) >> {
        - wall Wall

        + XLen int
        + Snake Snake
        + Food Food

        - detectWallCollision() bool
        - detectCollision() bool

        + RefreshFood() 

    }
    class gosnake.Bodies << (T, #FF7700) >>  {
    }
    class gosnake.Wall << (T, #FF7700) >>  {
    }
    class gosnake.WallGenerator << (T, #FF7700) >>  {
    }
    class gosnake.direction << (T, #FF7700) >>  {
    }
}


namespace main {
    class gameBox << (S,Aquamarine) >> {
        - game *gosnake.Game
        - xOff int
        - style style

        - drawSnake() 
        - drawFood() 
        - drawWall() 
        - updateAndDrawAll() 
        - drawStatus() 

    }
    class main.color << (T, #FF7700) >>  {
    }
    class snake << (S,Aquamarine) >> {
        - head rune

    }
    class style << (S,Aquamarine) >> {
        - snake snake
        - food rune
        - wall wall

    }
    class wall << (S,Aquamarine) >> {
        - corners []rune
        - top rune

    }
    class "termbox.Attribute" as termboxAttribute {
        'This class was created so that we can correctly have an alias pointing to this name. Since it contains dots that can break namespaces
    }
}


"__builtin__.int" #.. "gosnake.direction"
"gosnake.<font color=blue>func</font>(Coordinates) bool" #.. "gosnake.Wall"
"gosnake.<font color=blue>func</font>(World) Wall" #.. "gosnake.WallGenerator"
"gosnake.[]Body" #.. "gosnake.Bodies"
"main.termboxAttribute" #.. "main.color"
@enduml

@startuml
namespace gosnake {
    class Bodies << (S,Aquamarine) >> {
        - head() Body
        - any(f <font color=blue>func</font>(Body) bool) bool
        - match(f <font color=blue>func</font>(Body) bool) int
        - appendHead(b Body) 
        - shiftTail() 

    }
    class Body << (S,Aquamarine) >> {
        + X int

        + Coordinates() Coordinates

    }
    class Coordinates << (S,Aquamarine) >> {
        - x int

        + String() string
        + Equal(co Coordinates) bool

    }
    class Food << (S,Aquamarine) >> {
        + X int

        + Coordinates() Coordinates

    }
    class Game << (S,Aquamarine) >> {
        - isOver bool

        + World World

        + Score() int
        + IsOver() bool
        + WalkUp() 
        + WalkDown() 
        + WalkLeft() 
        + WalkRight() 

    }
    class GameConfig << (S,Aquamarine) >> {
        + XLen int
        + BabySnake Snake
        + InitFood Food
        + WallGenerator WallGenerator

    }
    class Snake << (S,Aquamarine) >> {
        - score int

        + Bodies Bodies
        + Len int
        + Direction direction

        - onSnake(c Coordinates) bool
        - detectBodyCollision() bool
        - appendHead(b Body) 
        - shiftTail() 
        - walk(w *World, direction direction) 

        + Head() Body

    }
    class Wall << (S,Aquamarine) >> {
        - onWall(c Coordinates) bool

    }
    class World << (S,Aquamarine) >> {
        - wall Wall

        + XLen int
        + Snake Snake
        + Food Food

        - detectWallCollision() bool
        - detectCollision() bool

        + RefreshFood() 

    }
    class gosnake.Bodies << (T, #FF7700) >>  {
    }
    class gosnake.Wall << (T, #FF7700) >>  {
    }
    class gosnake.WallGenerator << (T, #FF7700) >>  {
    }
    class gosnake.direction << (T, #FF7700) >>  {
    }
}


namespace main {
    class gameBox << (S,Aquamarine) >> {
        - game *gosnake.Game
        - xOff int
        - style style

        - drawSnake() 
        - drawFood() 
        - drawWall() 
        - updateAndDrawAll() 
        - drawStatus() 

    }
    class main.color << (T, #FF7700) >>  {
    }
    class snake << (S,Aquamarine) >> {
        - head rune

    }
    class style << (S,Aquamarine) >> {
        - snake snake
        - food rune
        - wall wall

    }
    class wall << (S,Aquamarine) >> {
        - corners []rune
        - top rune

    }
    class "termbox.Attribute" as termboxAttribute {
    }
}


"__builtin__.int" #.. "gosnake.direction"
"gosnake.<font color=blue>func</font>(Coordinates) bool" #.. "gosnake.Wall"
"gosnake.<font color=blue>func</font>(World) Wall" #.. "gosnake.WallGenerator"
"gosnake.[]Body" #.. "gosnake.Bodies"
"main.termboxAttribute" #.. "main.color"
@enduml

PlantUML version 1.2020.12(Sat Jun 06 10:54:15 UTC 2020)
(GPL source distribution)
Java Runtime: Java(TM) SE Runtime Environment
JVM: Java HotSpot(TM) 64-Bit Server VM
Default Encoding: UTF-8
Language: en
Country: US
--></g></svg>